<svg width="181" height="135" viewBox="0 0 181 135" fill="none" xmlns="http://www.w3.org/2000/svg">
<path fill-rule="evenodd" clip-rule="evenodd" d="M100.484 42.4485C100.978 42.2295 102.53 41.5409 106.688 45.1067C107.16 45.578 107.061 45.6192 107.539 46.0964C109.348 47.8998 115.522 47.7757 117.268 47.1047C117.685 47.0191 118.102 46.9336 118.519 46.8481C118.964 47.3584 119.076 47.285 119.06 48.0111C117.52 48.63 117.791 49.0137 112.657 52.74C112.023 54.3869 112.799 54.2995 114.592 57.3606C112.515 66.9006 121.82 74.8667 120.994 68.5397C120.904 67.851 120.806 67.9103 120.449 67.2425C120.566 67.1239 120.794 67.1691 120.911 67.0505C120.911 67.0505 120.507 64.7539 120.492 64.378C127.234 65.3688 128.527 69.2589 133.16 64.7337L133.562 64.8514C158.868 67.1506 158.867 66.9012 161.052 67.2181C170.083 68.5282 171.337 66.7831 172.514 69.0852C173.728 71.4592 168.18 73.353 167.203 73.8574C166.654 74.141 164.842 75.0763 167.082 81.5842C167.183 82.3384 167.74 86.5044 168.908 90.9185L168.99 91.8244C170.752 98.2318 171.787 105.97 171.953 107.212C169.061 108.703 169.305 109.194 169.528 109.321C169.939 109.554 171.856 108.253 172.376 107.952C180.947 124.808 183.791 127.478 177.875 129.267C173.445 130.606 171.881 131.388 171.221 129.59C170.511 127.655 171.696 127.125 174.258 126.04C174.808 124.736 174.279 124.761 173.454 123.621C168.116 116.239 164.068 109.342 161.979 108.281C161.985 109.397 162.003 109.358 161.865 110.431C160.158 110.38 158.934 110.918 158.854 111.037C158.003 112.297 161.68 111.018 161.911 110.938C163.742 123.972 166.851 133.087 162.439 133.224C154.775 133.464 154.091 132.926 154.067 130.953C154.057 130.115 154.575 129.764 154.667 129.701C156.135 128.706 156.271 129.189 158.249 129.036C160.712 129.92 161.268 128.583 160.529 128.323C160.391 128.275 160.386 128.459 158.709 128.163C156.764 122.854 153.621 110.732 152.582 109.113C151.294 106.867 144.053 97.0933 141.618 91.309C141.073 90.0151 141.342 89.779 140.089 89.1161C136.089 89.3507 136.096 89.7506 135.846 89.8126C135.134 89.7409 135.176 89.7576 134.502 89.9843C131.856 90.5528 131.868 90.3972 129.296 91.149C126.59 90.8772 126.672 91.5445 126.769 91.7281C127.012 92.1908 127.141 91.8568 128.13 91.5552C127.49 93.1634 121.04 109.362 120.604 111.842C120.275 119.695 119.577 122.619 119.46 128.623C119.446 129.377 120.076 131.916 117.309 133.006C117.182 133.056 112.447 133.105 109.831 132.331C108.974 131.073 108.774 130.805 109.598 129.352C109.714 129.286 109.65 128.811 113.073 128.62C115.452 130.408 115.629 129.243 115.612 129.038C115.592 128.783 113.653 128.2 113.476 128.147C113.294 118.497 112.935 117.393 112.647 116.505C112.435 115.005 112.541 115.037 112.556 113.256C112.565 112.79 112.575 112.324 112.585 111.857C117.044 103.026 120.642 97.1585 123.907 90.9589C125.215 88.4751 123.057 90.4581 123.019 90.5271C112.67 109.074 112.311 109.984 111.603 111.779C108.516 111.541 108.438 112.034 108.57 112.241C109.405 113.547 109.881 112.599 111.244 113.256L111.19 113.715C110.102 118.858 110.048 118.81 108.911 123.971C108.667 124.668 108.655 124.623 108.721 125.306C108.056 128.239 107.838 128.191 107.915 130.026C107.929 130.365 108.051 133.271 105.156 133.247C99.3886 133.201 97.0913 133.841 97.4557 130.167C97.5359 129.961 97.6161 129.756 97.6963 129.55C99.5407 129.127 99.5182 129.243 101.428 129.062C101.6 129.137 105.193 130.711 103.774 129.074C103.677 128.962 103.638 129.057 102.172 128.146C103.007 112.106 104.784 112.028 102.753 103.015C98.8309 85.6045 97.8954 69.0165 96.3718 68.3488C96.1992 68.2731 95.999 68.2751 95.8264 68.1996C95.9548 68.1221 96.1412 68.3549 96.2696 68.2775C97.5677 67.495 96.042 64.1132 95.8937 63.7844C96.3393 63.7722 99.1389 63.6959 101.385 62.8351C102.137 62.5471 104.174 61.3952 104.24 61.0933C104.506 59.8821 102.549 61.1261 102.426 61.204C99.9292 62.7913 96.904 62.486 94.9665 63.1926C93.8564 63.5212 94.107 63.8146 93.3438 64.6645C92.6085 65.4831 85.7109 63.904 85.2623 62.4391C82.7636 54.2794 85.8711 49.9164 87.8882 46.1502L88.2416 45.5786L88.3829 45.2409C90.2938 45.7861 90.7582 46.7341 91.7367 44.9881C92.4204 44.92 92.48 44.7415 96.3993 46.417C96.7742 46.5773 99.1982 47.6135 100.247 43.0741C100.326 42.8655 100.405 42.6569 100.485 42.4484L100.484 42.4485Z" fill="#EBD350"/>
<path fill-rule="evenodd" clip-rule="evenodd" d="M40.4012 23.2305C40.923 24.3946 44.6737 32.7619 51.4497 34.7295C53.0652 35.7506 49.8578 36.7906 48.5487 43.4159C48.01 46.1423 49.8823 48.4793 49.6826 46.1864C49.2906 41.6842 50.2253 40.7775 52.5428 36.4119C53.5474 34.5195 54.135 35.804 56.7141 35.954C60.2102 36.1573 55.2849 39.1105 54.8592 42.9232C54.6444 44.848 56.2303 45.4546 56.0906 44.3266C55.5513 39.9716 57.9649 40.6079 58.9955 36.3818C59.1261 35.8461 60.0565 37.0531 64.6947 32.5065C77.6592 41.1009 77.5518 41.2009 82.8547 44.7219C82.8048 44.8697 83.0406 45.0217 82.9907 45.1695C82.9067 45.4181 82.6247 45.5532 82.4968 45.7823C82.325 46.09 81.0008 48.4621 80.9525 49.9091C80.849 53.0176 83.6041 45.5806 83.7572 45.1674C86.7546 46.3104 87.5513 46.1978 87.8876 46.1503C85.8705 49.9164 82.763 54.2794 85.2617 62.4391C85.7103 63.9042 92.6079 65.4831 93.3431 64.6645C94.1064 63.8146 93.8559 63.5213 94.9659 63.1927L95.8929 63.7843C96.0413 64.1131 97.567 67.4949 96.2689 68.2774C96.1404 68.3549 95.9541 68.122 95.8256 68.1995C82.6945 66.2134 75.9456 65.9504 65.4201 57.5509C64.8393 57.0875 60.879 54.3322 60.4817 54.0558C58.8811 53.6082 59.2375 54.5902 58.272 58.3339C58.0342 59.2555 57.9431 59.3354 58.6101 59.9993C56.8312 59.8361 56.8708 59.876 56.7201 59.8593L55.7793 59.8274L54.3847 59.7517C40.6659 59.2002 40.6701 59.4979 39.4872 59.3485C37.5782 59.1074 32.3543 54.7003 32.3508 54.5768C32.3352 54.035 45.9065 39.2856 45.9775 38.7271C46.3152 36.0687 39.6152 44.8914 32.053 53.1895C29.955 55.4919 25.4876 53.4027 25.2278 54.6207C24.8199 56.5331 28.7395 53.5448 32.9388 56.4626C36.7278 59.0953 36.7671 58.9349 40.7004 61.261C41.2044 61.5616 41.1548 61.5798 41.735 61.7349C42.0511 62.4547 42.2005 62.3411 48.185 66.8469C50.1628 68.6276 48.6654 68.9488 47.3743 71.3188C41.8367 81.4839 41.4677 81.2326 41.0208 82.1309C39.9982 84.1866 40.372 84.5324 39.0437 85.095C38.8683 85.024 38.6928 84.953 38.5174 84.882C37.8724 84.5032 37.934 84.492 37.1697 84.2819C34.878 82.0297 34.6554 82.3872 25.558 75.9255C25.2737 75.7337 24.9893 75.5418 24.7049 75.35C23.7619 74.6419 23.7936 74.6527 22.8435 73.9523C13.6028 67.1414 13.9171 66.586 12.3901 66.2211C10.5894 62.7819 6.97427 62.1867 9.67419 52.704C13.0025 45.7276 13.8619 46.3181 18.5969 40.1995C20.6719 37.5183 26.8589 30.8924 27.5974 30.1014C33.3069 23.987 37.9273 23.61 40.4012 23.2303V23.2305Z" fill="#FE76B1"/>
<path fill-rule="evenodd" clip-rule="evenodd" d="M41.7353 61.735C43.9695 61.4045 43.9558 61.514 49.73 61.5145C56.5464 61.5152 56.5373 61.4477 58.1147 61.5497C59.5012 63.1793 61.5654 66.5398 62.2623 65.2626C62.4389 64.939 62.4594 64.7794 59.5133 61.5644C59.9713 61.6069 60.4294 61.6493 60.8874 61.6918C63.0841 62.373 72.1427 63.6085 72.5131 80.1707C71.1047 79.0866 67.2465 73.4673 67.7264 76.4953C67.7372 76.5631 70.365 79.9676 72.328 81.6032C71.8824 84.592 71.9316 84.5698 70.8966 87.4016C69.3397 87.2686 69.4822 87.7639 66.7314 91.1878C65.2356 93.0496 67.2561 92.2148 67.3192 92.1503C67.7095 91.7511 69.2689 89.5272 69.3143 89.5255C69.5538 89.5163 69.6094 90.0152 69.8489 90.0061C68.9634 91.4092 67.1478 95.0531 62.3322 98.0063C61.7108 97.2677 55.3627 89.4071 56.6849 93.239C56.7709 93.4881 56.8796 93.3802 58.8394 95.7318C60.0869 97.2288 59.9011 97.3761 61.5473 98.4887C60.5877 99.1744 60.5905 99.0717 48.6493 105.63C48.1017 106.275 48.0977 106.231 47.8543 106.633C41.7194 110.272 25.9376 118.583 24.0169 119.594C23.9234 119.643 23.1161 120.068 22.8752 120.261C22.4845 118.436 22.317 118.528 21.3169 116.981C20.6145 116.512 20.6639 116.531 19.8989 116.168C19.8085 116.112 19.8133 116.119 18.8629 115.648C16.478 111.347 15.5033 109.834 13.7694 106.799C13.9341 106.585 17.0916 102.492 14.8462 103.603C14.3232 103.862 14.4353 103.925 13.1266 105.702C10.6971 101.557 10.7567 101.558 8.27058 97.4784C11.1264 96.135 11.0653 96.1328 13.8739 94.6398C17.1612 99.073 17.598 99.0303 17.8681 98.6659C18.1031 98.3489 16.9543 95.892 14.4252 94.3328C16.0352 93.4869 19.8388 91.4662 20.3093 91.2162C21.6914 90.482 21.6536 90.495 23.0813 89.7725C23.0437 89.8625 22.6123 90.8971 22.6123 90.8971C21.0144 92.1867 22.55 92.7164 23.0942 92.2035C23.2964 92.0129 25.258 90.1637 25.2755 89.4998C25.2822 89.2455 24.9119 89.0796 24.9186 88.8254L25.1494 88.7099C26.1485 88.1421 26.1575 88.1613 26.2692 88.0387C27.5956 88.1518 27.5815 88.0848 36.6838 85.6543C37.9932 87.9647 38.2939 85.4548 38.3098 85.323L38.5179 84.8824C38.6933 84.9534 38.8688 85.0244 39.0442 85.0954C39.7988 85.6641 39.8436 86.0021 40.2079 85.5956C41.0007 84.7111 40.8929 84.6546 41.8018 83.9157C46.7925 87.9964 46.8445 87.9221 47.2779 88.2768C44.1219 90.5102 43.4477 93.3828 45.1058 92.3416C45.4107 92.1501 45.3614 92.1102 48.0096 88.9023C49.162 89.7871 51.6613 92.2803 53.2876 89.8631C55.3994 86.7242 46.1883 83.7682 47.9357 82.6342C49.1403 81.8525 54.5828 89.8132 55.9449 85.3604C56.8616 82.3638 47.3201 78.7218 50.6421 78.6481C52.021 78.6175 56.8268 85.2831 58.2713 81.6499C59.1824 79.3581 57.3466 78.4474 55.2151 76.6001C55.6376 76.227 57.9835 74.1551 59.8121 71.2596C59.9365 71.0627 59.8961 69.3691 58.7376 70.8691C58.1826 71.5878 57.4378 71.6616 57.4191 71.673C58.7601 65.6379 51.1871 68.917 50.2622 69.1135C49.9133 65.7192 51.9043 62.4173 50.1227 63.2833C49.6605 63.508 49.8062 65.6643 48.1854 66.8473C42.201 62.3415 42.0516 62.4551 41.7354 61.7353L41.7353 61.735Z" fill="#4D6EA9"/>
<path fill-rule="evenodd" clip-rule="evenodd" d="M56.72 59.8592C56.8707 59.876 56.8311 59.8362 58.6101 59.9993C59.2409 60.2194 59.1244 60.4639 59.9869 60.4799C60.7484 60.4939 60.6488 60.2688 61.3793 60.0359C65.9139 60.3818 66.0458 60.3098 69.5964 63.0942C73.7984 66.3891 74.8004 74.4494 74.934 75.5232C75.0127 78.5612 75.0451 78.5299 74.9681 81.5809C74.9251 121.033 74.5809 121.14 75.2129 122.298L75.324 122.636C73.6996 122.044 73.7854 121.685 72.093 121.801L71.6107 121.777C71.5002 121.689 71.2987 121.882 71.1882 121.794C70.93 121.59 70.9569 119.335 69.9353 120.437C67.7366 122.807 68.073 123.054 67.873 123.248C67.7683 123.35 67.5412 123.179 67.4364 123.28C65.9455 123.28 49.3128 123.278 48.7991 123.227C48.3734 123.185 48.5311 122.921 48.1133 122.839C47.9088 122.798 48.1027 123.09 47.925 123.055C47.9475 121.651 47.9701 120.248 47.9928 118.844C48.1152 117.417 48.2627 113.696 48.2804 113.249C50.5938 115.647 50.7625 115.54 50.9966 115.393C51.6366 114.988 50.619 113.739 48.3567 111.389C48.3926 109.981 48.4284 108.573 48.4644 107.165C48.2609 106.988 48.0573 106.81 47.8538 106.632C48.0972 106.23 48.1011 106.275 48.6488 105.629C48.9401 105.781 49.0182 106.209 49.3095 106.361C49.4747 106.447 59.9319 100.614 60.8491 100.103C78.8337 90.0715 74.7388 68.7024 66.4996 62.9469C64.2923 61.4051 61.941 60.8641 61.879 60.9119C61.6096 61.1193 61.5938 61.5592 61.3264 61.7693C61.2094 61.8612 61.0038 61.5995 60.8869 61.6914C60.4289 61.6489 59.9708 61.6064 59.5128 61.5639C59.0466 61.5591 58.5805 61.5542 58.1142 61.5494C56.5368 61.4473 56.546 61.5148 49.7295 61.5142C43.9554 61.5136 43.9692 61.4043 41.7348 61.7346C41.1547 61.5796 41.2041 61.5614 40.7002 61.2608C42.5246 59.9896 44.1525 60.4739 46.0034 60.4696C55.0911 60.4484 55.1319 60.5261 56.242 59.988C56.242 59.988 56.6818 59.8692 56.72 59.8589V59.8592Z" fill="#4D6DA7"/>
<path fill-rule="evenodd" clip-rule="evenodd" d="M12.3904 66.2214C13.9173 66.5863 13.6031 67.1418 22.8438 73.9527C23.7939 74.653 23.7622 74.6423 24.7052 75.3503C23.5624 75.8347 22.9029 75.8855 23.6546 76.9182C23.9652 77.3449 25.9023 80.006 27.9398 81.933C28.5044 82.4671 29.6854 82.1351 28.5869 80.8C25.1751 76.6531 24.7051 76.8983 24.8355 76.4582C24.9205 76.1712 25.4734 76.2127 25.5584 75.9259C34.6558 82.3876 34.8784 82.0301 37.1701 84.2822C31.5783 86.0346 31.4558 85.5347 25.9916 87.616C25.5271 87.5966 25.0627 87.577 24.5981 87.5576C21.2022 86.4747 19.6682 86.2437 16.4927 83.1343C18.8865 80.0681 17.0267 79.7634 16.82 79.9187C16.5477 80.1233 16.3297 81.0322 16.3051 81.135C16.1407 81.82 15.9337 81.6709 15.5743 82.1897C12.6688 78.7769 12.2666 76.0059 12.0224 75.0589C16.7083 71.3887 15.7386 70.433 15.2882 70.3466C14.4496 70.1858 12.0693 73.8227 11.844 74.1669C11.3978 70.1669 11.3831 70.1516 12.3906 66.2214H12.3904Z" fill="#4D6FAA"/>
<path fill-rule="evenodd" clip-rule="evenodd" d="M8.27039 97.4785C10.7565 101.558 10.6969 101.557 13.1264 105.702C13.3407 106.067 13.5549 106.433 13.7692 106.799C15.5032 109.834 16.4778 111.347 18.8627 115.649C18.7667 115.94 18.6706 116.232 18.5745 116.524C17.5575 121.028 17.2662 121.106 17.6758 121.575C18.8917 122.965 18.3649 118.639 19.8987 116.168C20.6636 116.531 20.6143 116.511 21.3167 116.981C20.8814 117.324 20.9913 117.443 20.4925 117.631C18.7964 118.268 21.5778 118.455 22.0567 118.924C21.4975 119.458 21.5017 119.403 20.7685 119.661C19.1154 120.244 21.7271 120.278 22.6643 121.183C23.7084 123.464 23.2715 123.549 23.5925 126.767C20.3083 122.703 17.5828 124.91 15.2253 123.562C13.9632 122.84 4.42255 105.73 2.13668 101.007C3.66958 100.171 7.78189 97.7644 8.2705 97.4786L8.27039 97.4785Z" fill="#EDD657"/>
<path fill-rule="evenodd" clip-rule="evenodd" d="M71.1424 121.88C71.2279 122.483 71.3744 122.42 71.3048 123.025C71.2356 123.626 71.9958 123.515 72.0529 123.46C72.1382 123.378 72.1251 123.378 73.0278 122.349C73.1989 122.396 73.7577 122.113 73.4495 123.03C72.8808 124.722 73.9691 124.112 74.0149 124.032C74.7073 122.824 74.903 122.989 76.2806 123.023C76.7151 123.144 78.7144 123.382 80.0719 124.676C74.8928 127.138 76.1899 128.57 74.687 129.809C72.8549 131.318 66.2428 130.942 47.7967 130.48C47.8088 126.724 47.82 126.773 47.9257 123.055C48.1035 123.09 47.9095 122.798 48.1141 122.839C48.5318 122.921 48.3741 123.185 48.7999 123.227C49.3135 123.278 65.9462 123.28 67.4372 123.281C69.3151 123.488 69.1099 123.895 70.543 125.063C70.7377 125.222 80.3011 133.013 73.3982 126.368C70.8762 123.94 67.9102 123.188 71.1425 121.881L71.1424 121.88Z" fill="#EDD658"/>
<path fill-rule="evenodd" clip-rule="evenodd" d="M50.2623 69.1133C51.1871 68.9167 58.7602 65.6378 57.4192 71.6728C57.1474 71.9748 56.8754 72.277 56.6035 72.579C54.5946 73.3664 54.5399 73.0328 52.4404 73.4614C52.2971 73.4907 45.3743 74.904 51.1128 74.7195C53.1519 74.6538 53.0851 74.9482 54.6952 76.1763L55.2151 76.5998C57.3466 78.447 59.1824 79.3577 58.2713 81.6495C56.8268 85.2827 52.021 78.6173 50.6421 78.6478C47.3201 78.7214 56.8615 82.3635 55.9449 85.3601C54.5828 89.8128 49.1403 81.8522 47.9357 82.6339C46.1883 83.7678 55.3994 86.7238 53.2876 89.8627C51.6612 92.2801 49.162 89.7868 48.0096 88.902L47.2779 88.2764C46.8445 87.9217 46.7925 87.9961 41.8018 83.9154C41.7171 82.7081 41.8241 82.7432 42.435 81.6743C48.8624 70.4292 49.3995 69.9241 50.262 69.113L50.2623 69.1133Z" fill="#FEE9E9"/>
<path fill-rule="evenodd" clip-rule="evenodd" d="M115.865 56.4725C118.444 56.089 118.414 56.2335 120.993 56.3789C125.38 56.7042 131.33 59.5175 132.756 60.5548C133.052 60.9638 133.056 60.903 133.353 61.3033C133.538 62.4888 133.727 62.4917 133.197 63.5359C129.696 62.4174 122.947 60.0111 125.258 61.9191C125.907 62.4551 131.993 64.2097 132.588 64.381L133.159 64.7336C128.527 69.259 127.234 65.3688 120.492 64.3779C120.182 63.6708 120.193 63.7128 119.894 63.0157C118.737 60.3143 118.635 64.3858 120.449 67.2424C120.806 67.9102 120.904 67.8509 120.994 68.5396C121.82 74.8666 112.515 66.9007 114.591 57.3606C115.016 57.0645 115.44 56.7685 115.865 56.4725Z" fill="#FEE9EA"/>
<path fill-rule="evenodd" clip-rule="evenodd" d="M80.0715 124.677C81.6854 125.267 85.0387 125.933 85.1377 129.555C85.2208 132.59 83.9697 132.962 81.8667 133.672C79.0403 133.639 79.0805 133.793 76.2806 133.455C75.2922 133.401 75.342 133.372 74.4055 133.441C72.3558 133.466 71.7338 133.474 48.7832 133.17C47.1668 132.758 47.9088 132.145 47.7966 130.48C66.2425 130.942 72.8548 131.319 74.6868 129.809C76.1897 128.57 74.8926 127.138 80.0718 124.677L80.0715 124.677Z" fill="#CFD8EA"/>
<path fill-rule="evenodd" clip-rule="evenodd" d="M2.13664 101.007C4.42262 105.73 13.9632 122.839 15.2252 123.561C17.5829 124.91 20.3084 122.703 23.5925 126.767C23.6133 127.358 24.0132 130.482 23.1604 131.405C21.1472 133.583 19.7941 134.726 16.861 132.653C15.777 131.163 0.789196 103.826 0 102.965C0.739675 101.326 1.07447 101.672 2.13664 101.007Z" fill="#CFD8EB"/>
<path fill-rule="evenodd" clip-rule="evenodd" d="M111.602 111.779C112.31 109.984 112.669 109.074 123.018 90.5271C123.057 90.4581 125.215 88.4751 123.907 90.9589C120.641 97.1585 117.043 103.026 112.585 111.857C112.411 112.562 112.407 112.546 112.555 113.256C112.541 115.037 112.434 115.005 112.646 116.505C112.548 116.629 112.922 116.823 112.823 116.946C112.618 117.203 111.646 116.63 111.672 117.912C111.76 122.151 111.495 122.127 112.175 126.297C112.432 127.871 110.969 126.753 109.757 128.114C109.037 128.921 108.783 128.522 108.786 128.609C108.789 128.697 108.845 128.663 109.597 129.352C108.774 130.805 108.974 131.073 109.831 132.331C109.78 132.669 109.729 133.007 109.678 133.345C107.41 131.922 107.454 134.533 105.615 134.62C98.5106 134.953 98.1981 134.194 96.3279 132.327C96.2464 132.246 95.8234 131.823 95.8917 130.956C95.9788 129.849 96.3816 130.042 97.4548 130.167C97.0904 133.841 99.3877 133.202 105.155 133.248C108.05 133.271 107.928 130.365 107.914 130.026C107.837 128.191 108.055 128.239 108.72 125.306L108.91 123.972C110.047 118.81 110.101 118.858 111.189 113.715C111.475 113.005 111.495 113.054 111.569 112.248L111.602 111.779L111.602 111.779Z" fill="#2B230A" fill-opacity="0.21"/>
<path fill-rule="evenodd" clip-rule="evenodd" d="M60.8873 61.6915C61.0043 61.5996 61.2099 61.8613 61.3268 61.7694C61.5942 61.5593 61.6099 61.1194 61.8794 60.912C61.9414 60.8643 64.2927 61.4052 66.5 62.947C74.7392 68.7025 78.8341 90.0715 60.8495 100.103C59.9323 100.614 49.4752 106.447 49.3099 106.361C49.0186 106.209 48.9405 105.781 48.6492 105.629C60.5903 99.0714 60.5875 99.174 61.5471 98.4883L62.3321 98.006C67.1478 95.0527 68.9633 91.4087 69.8488 90.0057C70.4621 88.7037 70.4036 88.7347 70.8965 87.4012C71.9316 84.5694 71.8824 84.5917 72.3279 81.6029L72.5131 80.1704C72.1426 63.6081 63.0841 62.3728 60.8873 61.6915Z" fill="#260E14"/>
<path fill-rule="evenodd" clip-rule="evenodd" d="M54.3848 59.752C55.0998 59.9366 55.0652 59.9362 55.7794 59.8277L56.7202 59.8596C56.682 59.8698 56.2422 59.9887 56.2422 59.9887C55.1322 60.5268 55.0913 60.4491 46.0036 60.4702C44.1527 60.4746 42.5247 59.9902 40.7004 61.2614C36.7672 58.9353 36.7278 59.0957 32.9388 56.463C28.7395 53.5452 24.8198 56.5335 25.2278 54.6211C25.4876 53.4031 29.955 55.4923 32.053 53.19C39.6152 44.8917 46.3152 36.0691 45.9775 38.7276C45.9066 39.286 32.3353 54.0355 32.3508 54.5772C32.3544 54.7007 37.5783 59.1078 39.4872 59.3489C40.67 59.4983 40.6659 59.2007 54.3847 59.7521L54.3848 59.752Z" fill="#453B59"/>
<path fill-rule="evenodd" clip-rule="evenodd" d="M64.5962 31.2595C64.5967 31.2725 64.3505 31.3231 64.6951 32.5067C60.0568 37.0533 59.1265 35.8463 58.9959 36.382C57.9652 40.6082 55.5517 39.9718 56.0911 44.3268C56.2308 45.4548 54.6448 44.8482 54.8597 42.9234C55.2852 39.1106 60.2107 36.1575 56.7145 35.9542C54.1354 35.8042 53.5479 34.5197 52.5433 36.4121C50.2258 40.7777 49.2911 41.6844 49.683 46.1866C49.8827 48.4794 48.0104 46.1425 48.5491 43.4161C49.8581 36.7907 53.0656 35.7506 51.4501 34.7297C51.8195 34.0064 51.8966 33.9757 51.5245 33.2648C51.2705 33.0767 51.0164 32.8884 50.7624 32.7003C52.122 30.6028 51.9197 34.04 54.3879 34.5376C56.4265 34.9486 57.5221 35.5002 57.3251 34.0625C57.1555 32.8256 58.1302 32.77 58.3587 33.6432C58.9449 35.8832 59.8588 35.2475 61.7201 33.9012C63.327 32.7388 63.0473 32.4703 64.5962 31.2595Z" fill="#40141C"/>
<path fill-rule="evenodd" clip-rule="evenodd" d="M161.979 108.281C161.894 108.127 161.54 108.257 161.663 107.212C164.555 82.4909 164.397 79.9604 165.596 81.6474C165.843 81.9959 162.598 108.057 162.482 108.233C162.39 108.374 162.072 108.141 161.979 108.281Z" fill="#593C16"/>
<path fill-rule="evenodd" clip-rule="evenodd" d="M48.185 66.8472C49.8058 65.6642 49.6601 63.5079 50.1222 63.2832C51.9038 62.4171 49.9129 65.719 50.2618 69.1134C49.3991 69.9245 48.862 70.4295 42.4347 81.6747C41.8238 82.7436 41.7169 82.7085 41.8015 83.9157C40.8925 84.6546 41.0003 84.7111 40.2076 85.5956C39.8433 86.0021 39.7985 85.6641 39.0439 85.0954C40.3722 84.5328 39.9984 84.1869 41.021 82.1313C41.4678 81.233 41.8369 81.4843 47.3745 71.3192C48.6656 68.9492 50.1631 68.628 48.1853 66.8473L48.185 66.8472Z" fill="#30223B"/>
<path fill-rule="evenodd" clip-rule="evenodd" d="M61.7843 40.1258C60.4749 53.0532 59.7143 53.9717 58.9965 53.1809C58.1382 52.2355 60.1024 52.1251 60.8836 37.3311C60.8881 37.2465 60.95 36.0745 61.643 36.594C61.8699 36.7641 61.7914 39.8432 61.7843 40.1258Z" fill="#5A202E"/>
<path fill-rule="evenodd" clip-rule="evenodd" d="M40.8674 22.4268C44.5344 29.0461 45.7369 30.5702 50.1796 33.2498C51.1018 33.7382 51.0887 33.8059 51.1737 33.7762C51.5115 33.6581 51.1975 33.3791 51.5244 33.2649C51.8966 33.9757 51.8193 34.0064 51.4501 34.7298C44.6741 32.7622 40.9234 24.3949 40.4016 23.2308C40.5569 22.9628 40.7121 22.6948 40.8674 22.4268Z" fill="#28090C"/>
<path fill-rule="evenodd" clip-rule="evenodd" d="M37.1702 84.2819C37.9345 84.492 37.8729 84.5032 38.5179 84.8821L38.3098 85.3226C37.7677 85.433 37.2258 85.5435 36.6838 85.6539C27.5815 88.0843 27.5956 88.1514 26.2692 88.0383L25.9917 87.6157C31.4559 85.5344 31.5785 86.0343 37.1702 84.2819Z" fill="#29151F" fill-opacity="0.99"/>
<path fill-rule="evenodd" clip-rule="evenodd" d="M108.43 44.9883C110.589 45.2862 112.921 45.1809 116.806 45.187C117.093 45.2313 117.38 45.2756 117.668 45.32L117.708 45.7219C117.398 46.1806 117.428 46.1804 116.885 46.3483C116.358 46.4065 114.022 46.6651 110.262 46.3432C108.977 46.2333 108.504 45.4928 107.945 45.0395L108.43 44.9884L108.43 44.9883Z" fill="#F9E055" fill-opacity="0.98"/>
<path fill-rule="evenodd" clip-rule="evenodd" d="M106.688 45.1069C107.059 45.1671 107.845 45.054 107.945 45.0397C108.504 45.493 108.978 46.2336 110.262 46.3434C114.023 46.6653 116.359 46.4067 116.885 46.3485C117.273 46.6468 117.252 46.6136 117.273 46.6468C117.408 46.8634 117.123 46.8717 117.268 47.1049C115.522 47.776 109.348 47.9 107.539 46.0966C107.061 45.6194 107.16 45.5783 106.688 45.107L106.688 45.1069Z" fill="#654A1C"/>
<path fill-rule="evenodd" clip-rule="evenodd" d="M24.7054 75.3498C24.9898 75.5417 25.2742 75.7336 25.5586 75.9254C25.4736 76.2124 24.9207 76.1709 24.8356 76.4577C24.7053 76.8978 25.1754 76.6527 28.587 80.7995C29.6855 82.1347 28.5045 82.4667 27.9399 81.9326C25.9025 80.0054 23.9654 77.3443 23.6548 76.9177C22.903 75.8849 23.5625 75.8341 24.7053 75.3498H24.7054Z" fill="#374589"/>
<path fill-rule="evenodd" clip-rule="evenodd" d="M71.6109 121.777L71.142 121.881C67.9096 123.188 70.8757 123.941 73.3977 126.368C80.3006 133.013 70.7372 125.222 70.5425 125.063C69.1094 123.896 69.3145 123.488 67.4367 123.281C67.5413 123.179 67.7684 123.35 67.8732 123.249C68.0733 123.054 67.7369 122.808 69.9355 120.437C70.9571 119.336 70.9301 121.59 71.1885 121.795C71.2989 121.882 71.5005 121.69 71.6109 121.777Z" fill="#37355D"/>
<path fill-rule="evenodd" clip-rule="evenodd" d="M56.6035 72.5791C56.5433 72.796 57.034 73.0716 56.251 73.8478C55.2406 74.8494 55.3302 74.8783 54.6953 76.1764C53.0853 74.9483 53.152 74.6539 51.1129 74.7195C45.3744 74.9041 52.2971 73.4908 52.4405 73.4615C54.54 73.0329 54.5947 73.3666 56.6037 72.5791H56.6035Z" fill="#465B8A"/>
<path fill-rule="evenodd" clip-rule="evenodd" d="M26.3932 111.432C26.6196 111.707 30.5733 116.523 28.3382 115.446C28.1468 115.353 21.3314 108.296 24.1241 109.027C24.3799 109.094 24.441 109.11 26.3932 111.432Z" fill="#354186"/>
<path fill-rule="evenodd" clip-rule="evenodd" d="M69.3862 109.91C70.2368 110.915 70.2144 110.873 71.1058 111.898C71.1819 111.986 74.3346 115.201 72.9829 115.454C72.3555 115.571 65.9682 108.576 68.3731 109.002C68.4802 109.021 68.4481 109.069 69.3862 109.91Z" fill="#364186"/>
<path fill-rule="evenodd" clip-rule="evenodd" d="M36.1477 95.1537C35.9997 94.9768 32.8204 91.1799 35.2392 92.4184C35.7878 92.6993 39.9188 97.7113 39.9836 97.8668C41.4851 101.468 36.3902 95.4407 36.1477 95.1537Z" fill="#354086"/>
<path fill-rule="evenodd" clip-rule="evenodd" d="M57.4189 71.6733C57.4375 71.6619 58.1823 71.5881 58.7374 70.8693C59.8957 69.3693 59.9363 71.0628 59.8118 71.2599C57.9833 74.1553 55.6374 76.2271 55.2148 76.6004L54.6949 76.1769C55.3299 74.8788 55.2402 74.8499 56.2506 73.8484C57.0337 73.0721 56.5429 72.7965 56.6032 72.5796C56.875 72.2776 57.147 71.9753 57.4189 71.6733Z" fill="#374489"/>
<path fill-rule="evenodd" clip-rule="evenodd" d="M94.9663 63.193C96.9037 62.4863 99.9288 62.7916 102.426 61.2044C102.549 61.1264 104.506 59.8824 104.24 61.0937C104.173 61.3955 102.137 62.5475 101.385 62.8355C99.1386 63.6963 96.3391 63.7726 95.8934 63.7848L94.9664 63.1931L94.9663 63.193Z" fill="#503514"/>
<path fill-rule="evenodd" clip-rule="evenodd" d="M62.3321 98.0063L61.5471 98.4887C59.9009 97.3761 60.0867 97.2288 58.8392 95.7317C56.8795 93.3801 56.7708 93.4881 56.6847 93.239C55.3624 89.4071 61.7107 97.2677 62.3321 98.0063Z" fill="#364086"/>
<path fill-rule="evenodd" clip-rule="evenodd" d="M27.7364 101.113C27.6711 101.278 25.4203 106.959 26.0491 102.552C26.2147 101.391 27.4654 97.4774 27.6049 97.041C27.8225 96.3602 28.4627 96.3821 28.6513 96.593C29.2802 97.2965 28.7683 97.3868 27.7364 101.113Z" fill="#364287"/>
<path fill-rule="evenodd" clip-rule="evenodd" d="M72.8623 98.3071C72.7239 98.7745 71.6468 103.715 70.7038 103.43C69.6178 103.102 72.6293 94.0793 73.1175 96.9238C73.1365 97.0347 73.0986 97.0263 72.8621 98.3071H72.8623Z" fill="#364287"/>
<path fill-rule="evenodd" clip-rule="evenodd" d="M50.0391 100.634C49.9659 100.866 48.6671 104.981 48.2094 103.062C48.0674 102.466 50.1889 94.4109 50.8897 96.8339C51.1122 97.6034 50.8785 97.5802 50.0391 100.634Z" fill="#364287"/>
<path fill-rule="evenodd" clip-rule="evenodd" d="M60.7529 85.261C60.7037 85.396 59.6087 88.4034 59.2923 86.3063C59.2113 85.769 61.2529 77.9107 61.9608 80.1085C62.1822 80.7958 61.9795 80.7843 60.7529 85.261Z" fill="#364187"/>
<path fill-rule="evenodd" clip-rule="evenodd" d="M59.6369 117.949C60.8523 113.657 60.7668 113.632 61.0066 113.33C62.9483 110.885 61.5256 115.86 61.4643 116.074C61.4068 116.276 58.6738 125.833 59.6369 117.949Z" fill="#364186"/>
<path fill-rule="evenodd" clip-rule="evenodd" d="M133.197 63.5364C132.994 63.8181 132.791 64.0998 132.588 64.3815C131.993 64.2101 125.907 62.4556 125.258 61.9196C122.947 60.0115 129.696 62.4179 133.197 63.5364Z" fill="#452826"/>
<path fill-rule="evenodd" clip-rule="evenodd" d="M57.6382 105.328C63.7161 98.3209 56.6715 110.304 55.315 109.066C54.9018 108.689 57.416 105.601 57.6382 105.328Z" fill="#354086"/>
<path fill-rule="evenodd" clip-rule="evenodd" d="M36.2177 104.4C36.7916 103.743 36.7773 103.735 36.8375 103.69C39.8815 101.396 34.8385 108.66 33.8959 109.066C31.0305 110.301 36.0397 104.625 36.2177 104.4Z" fill="#354086"/>
<path fill-rule="evenodd" clip-rule="evenodd" d="M72.5131 80.1705L72.328 81.603C70.3649 79.9674 67.7372 76.5629 67.7264 76.4951C67.2466 73.4671 71.1047 79.0865 72.5131 80.1705Z" fill="#364187"/>
<path fill-rule="evenodd" clip-rule="evenodd" d="M112.658 52.7404C112.812 52.8553 112.608 53.2744 115.21 53.8228L115.397 54.1053C115.446 55.3665 115.374 55.3401 115.865 56.4731C115.441 56.7691 115.017 57.0651 114.592 57.3611C112.799 54.3 112.023 54.3874 112.658 52.7405V52.7404Z" fill="#FE77B6" fill-opacity="0.99"/>
<path fill-rule="evenodd" clip-rule="evenodd" d="M70.8968 87.4016C70.4038 88.7349 70.4625 88.704 69.849 90.0061C69.6096 90.0152 69.5539 89.5163 69.3145 89.5255C69.2691 89.5273 67.7096 91.7511 67.3193 92.1503C67.2563 92.2148 65.2359 93.0496 66.7316 91.1878C69.4824 87.764 69.3398 87.2686 70.8968 87.4016Z" fill="#38458A"/>
<path fill-rule="evenodd" clip-rule="evenodd" d="M14.4251 94.3328C16.9542 95.8921 18.103 98.3491 17.868 98.6659C17.5977 99.0303 17.1611 99.0731 13.8737 94.6399L14.4251 94.3328Z" fill="#364186"/>
<path fill-rule="evenodd" clip-rule="evenodd" d="M19.5489 131.083C20.4637 130.188 20.6505 130.04 21.1219 128.118C22.1372 123.978 23.0241 131.032 19.4389 132.288C19.3474 132.321 17.8842 132.142 19.5487 131.083L19.5489 131.083Z" fill="#3D2729"/>
<path fill-rule="evenodd" clip-rule="evenodd" d="M11.8438 74.1666C12.0692 73.8223 14.4495 70.1854 15.288 70.3462C15.7385 70.4327 16.708 71.3884 12.0222 75.0585L11.8438 74.1666Z" fill="#364188"/>
<path fill-rule="evenodd" clip-rule="evenodd" d="M81.3201 126.857C85.238 131.049 83.2274 131.842 82.8295 131.746C82.0103 131.548 83.361 130.017 80.864 127.772C80.7705 127.688 78.7028 125.828 80.4863 126.246C80.4863 126.246 81.2534 126.808 81.3201 126.857Z" fill="#3F292B"/>
<path fill-rule="evenodd" clip-rule="evenodd" d="M47.278 88.2767L48.0098 88.9022C45.3616 92.1101 45.4109 92.15 45.106 92.3415C43.4478 93.3828 44.122 90.5102 47.278 88.2767Z" fill="#354086"/>
<path fill-rule="evenodd" clip-rule="evenodd" d="M58.1144 61.5496C58.5806 61.5545 59.0468 61.5594 59.513 61.5642C62.4591 64.7792 62.4387 64.9388 62.262 65.2624C61.5651 66.5397 59.501 63.1792 58.1144 61.5496Z" fill="#364186"/>
<path fill-rule="evenodd" clip-rule="evenodd" d="M18.8628 115.649C19.8132 116.119 19.8083 116.112 19.8988 116.168C18.365 118.639 18.8918 122.965 17.6758 121.575C17.2661 121.106 17.5576 121.029 18.5746 116.524C18.6706 116.232 18.7667 115.94 18.8628 115.649Z" fill="#553917"/>
<path fill-rule="evenodd" clip-rule="evenodd" d="M82.855 44.7219L83.7576 45.1674C83.6044 45.5807 80.8494 53.0177 80.9529 49.9092C81.0011 48.4621 82.3253 46.0901 82.4972 45.7823C82.6251 45.5533 82.9072 45.4181 82.991 45.1695C83.0409 45.0218 82.8052 44.8697 82.855 44.7219Z" fill="#4F1C29"/>
<path fill-rule="evenodd" clip-rule="evenodd" d="M24.9183 88.8251C24.9116 89.0795 25.2819 89.2453 25.2752 89.4995C25.2577 90.1634 23.2961 92.0126 23.0939 92.2033C22.5498 92.7161 21.0141 92.1865 22.612 90.8968C22.612 90.8968 23.0435 89.8623 23.081 89.7723C23.6935 89.4565 24.3058 89.1408 24.9183 88.825V88.8251Z" fill="#374389"/>
<path fill-rule="evenodd" clip-rule="evenodd" d="M48.3572 111.389C50.6195 113.739 51.6372 114.989 50.9971 115.393C50.763 115.541 50.5944 115.647 48.281 113.249L48.3572 111.389Z" fill="#374289"/>
<path fill-rule="evenodd" clip-rule="evenodd" d="M120.492 64.3777C120.507 64.7537 120.912 67.0503 120.912 67.0503C120.794 67.1689 120.567 67.1236 120.45 67.2422C118.636 64.3857 118.738 60.3142 119.895 63.0155C120.193 63.7126 120.182 63.6706 120.492 64.3777Z" fill="#5E4536"/>
<path fill-rule="evenodd" clip-rule="evenodd" d="M48.3292 22.418C48.2086 22.4759 44.9116 24.0582 46.6765 22.1632C48.444 20.2652 52.877 21.9906 50.6069 22.2499C49.7869 22.3436 49.7922 22.1518 48.3292 22.418Z" fill="#531D28"/>
<path fill-rule="evenodd" clip-rule="evenodd" d="M91.5719 44.5102L91.7368 44.9885C90.7582 46.7344 90.2939 45.7863 88.3829 45.2412C90.1879 43.234 90.8937 44.3677 91.5719 44.5102Z" fill="#210301" fill-opacity="0.99"/>
<path fill-rule="evenodd" clip-rule="evenodd" d="M79.114 130.476C78.639 129.494 78.7164 129.51 78.2017 128.591C77.1809 126.769 79.6743 127.976 80.1395 130.456C80.7242 133.572 79.1396 130.553 79.114 130.476Z" fill="#56464B"/>
<path fill-rule="evenodd" clip-rule="evenodd" d="M17.7433 128.308C17.8758 128.114 19.2847 126.054 19.4919 125.954C19.856 125.778 20.5651 126.52 18.8793 128.533C18.8198 128.604 14.9093 131.709 17.7433 128.308Z" fill="#4C3A3D"/>
<path fill-rule="evenodd" clip-rule="evenodd" d="M112.103 50.7213C111.961 50.7398 109.212 51.0975 110.42 50.1032C111.015 49.6127 111.278 50.2547 113.141 49.1005C114.159 48.4696 114.565 49.3018 113.91 49.7944C113.78 49.8919 113.776 49.8631 112.103 50.7213Z" fill="#543916"/>
<path fill-rule="evenodd" clip-rule="evenodd" d="M15.5743 82.1898C15.9338 81.671 16.1408 81.8201 16.305 81.1351C16.3296 81.0324 16.5477 80.1234 16.82 79.9188C17.0268 79.7635 18.8864 80.0683 16.4927 83.1344C16.1865 82.8195 15.8803 82.5047 15.5742 82.1898H15.5743Z" fill="#384589" fill-opacity="0.96"/>
<path fill-rule="evenodd" clip-rule="evenodd" d="M13.1261 105.702C14.4346 103.925 14.3226 103.862 14.8457 103.603C17.0912 102.492 13.9337 106.585 13.7689 106.799C13.5546 106.433 13.3404 106.067 13.1261 105.702Z" fill="#3D4887"/>
<path fill-rule="evenodd" clip-rule="evenodd" d="M72.093 121.802C73.7854 121.686 73.6996 122.044 75.324 122.637C75.6426 122.766 75.9612 122.895 76.2798 123.023C74.9023 122.99 74.7065 122.825 74.0141 124.032C73.9683 124.112 72.88 124.722 73.4487 123.03C73.7569 122.114 73.1981 122.396 73.027 122.349C72.7157 122.167 72.4043 121.984 72.093 121.802Z" fill="#654E28" fill-opacity="0.96"/>
<path fill-rule="evenodd" clip-rule="evenodd" d="M21.3167 116.981C22.3168 118.528 22.4842 118.436 22.875 120.261L22.7533 120.701C22.3762 119.8 22.3931 119.847 22.0568 118.924C21.5779 118.455 18.7964 118.268 20.4926 117.631C20.9914 117.443 20.8815 117.324 21.3168 116.981L21.3167 116.981Z" fill="#635238" fill-opacity="0.96"/>
<path fill-rule="evenodd" clip-rule="evenodd" d="M59.006 27.8787C59.192 28.3787 59.4575 28.3351 59.2224 29.008C58.6523 30.6402 58.9934 31.1063 57.5582 31.2859C58.1463 28.8024 58.4422 28.4973 59.006 27.8787Z" fill="#542E35"/>
<path fill-rule="evenodd" clip-rule="evenodd" d="M51.7188 24.7877L51.4925 25.1376C51.3484 25.1851 42.1755 27.6676 49.669 24.6183C49.746 24.587 50.26 24.3778 50.665 24.3277C51.8615 24.1798 51.6001 24.6911 51.7188 24.7877Z" fill="#4C1A24"/>
<path fill-rule="evenodd" clip-rule="evenodd" d="M171.954 107.212C172.094 107.459 172.235 107.705 172.376 107.952C171.856 108.253 169.939 109.553 169.528 109.321C169.305 109.194 169.061 108.703 171.954 107.212Z" fill="#5A3F18" fill-opacity="0.98"/>
<path fill-rule="evenodd" clip-rule="evenodd" d="M111.603 111.779L111.57 112.247C111.461 112.583 111.353 112.919 111.244 113.256C109.88 112.598 109.405 113.546 108.57 112.24C108.438 112.034 108.516 111.541 111.603 111.779Z" fill="#6A4D1E"/>
<path fill-rule="evenodd" clip-rule="evenodd" d="M161.865 110.431L161.911 110.938C161.68 111.018 158.004 112.297 158.854 111.037C158.935 110.918 160.158 110.38 161.865 110.431Z" fill="#5A3F17"/>
<path fill-rule="evenodd" clip-rule="evenodd" d="M103.181 47.1498C103.691 51.0032 100.975 45.8272 101.902 45.7794C102.416 45.7529 103.109 47.0183 103.181 47.1498Z" fill="#4E3314"/>
<path fill-rule="evenodd" clip-rule="evenodd" d="M22.0567 118.924C22.3929 119.847 22.376 119.8 22.7532 120.701L22.6642 121.183C21.7271 120.278 19.1153 120.244 20.7685 119.661C21.5017 119.402 21.4974 119.458 22.0567 118.924Z" fill="#725826" fill-opacity="0.97"/>
<path fill-rule="evenodd" clip-rule="evenodd" d="M119.933 111.486C118.158 111.651 118.048 111.904 117.69 111.426C116.934 110.417 119.945 110.572 120.001 110.71C120.099 110.951 119.835 111.245 119.933 111.486Z" fill="#755923"/>
<path fill-rule="evenodd" clip-rule="evenodd" d="M113.476 128.147C113.653 128.2 115.592 128.783 115.612 129.038C115.628 129.243 115.452 130.408 113.073 128.62C113.207 128.463 113.342 128.305 113.476 128.147Z" fill="#5D3F18" fill-opacity="0.95"/>
<path fill-rule="evenodd" clip-rule="evenodd" d="M158.709 128.163C160.386 128.458 160.391 128.275 160.529 128.323C161.269 128.582 160.712 129.92 158.249 129.035C158.402 128.745 158.555 128.454 158.709 128.163Z" fill="#705722" fill-opacity="0.89"/>
<path fill-rule="evenodd" clip-rule="evenodd" d="M102.172 128.147C103.637 129.058 103.677 128.963 103.774 129.074C105.193 130.712 101.6 129.138 101.428 129.062C101.59 128.921 101.753 128.78 101.915 128.639L102.172 128.147H102.172Z" fill="#6E521E" fill-opacity="0.93"/>
<path fill-rule="evenodd" clip-rule="evenodd" d="M71.611 121.777L72.0934 121.802C72.4047 121.984 72.7161 122.167 73.0274 122.349C72.1248 123.378 72.1379 123.379 72.0526 123.461C71.9956 123.515 71.2353 123.626 71.3045 123.025C71.3741 122.42 71.2276 122.483 71.1421 121.881L71.611 121.777Z" fill="#7B642B"/>
<path fill-rule="evenodd" clip-rule="evenodd" d="M38.3095 85.3228C38.2937 85.4546 37.9929 87.9645 36.6834 85.6541C37.2255 85.5437 37.7674 85.4333 38.3095 85.3228Z" fill="#38468A"/>
<path fill-rule="evenodd" clip-rule="evenodd" d="M60.4522 27.6956C60.4532 27.6971 60.892 27.9248 60.9449 28.4761C61.4254 33.4814 59.8997 27.9246 59.8844 27.8263L60.4522 27.6956Z" fill="#44151E"/>
<path fill-rule="evenodd" clip-rule="evenodd" d="M59.9378 59.8476C60.4184 59.9103 60.899 59.9731 61.3796 60.0358C60.6491 60.2687 60.7488 60.4939 59.9872 60.4798C59.1247 60.4638 59.2411 60.2193 58.6104 59.9992C59.0528 59.9487 59.4954 59.8982 59.9378 59.8476Z" fill="#48659B" fill-opacity="0.72"/>
<path fill-rule="evenodd" clip-rule="evenodd" d="M128.13 91.555C127.141 91.8566 127.012 92.1907 126.769 91.7279C126.672 91.5442 126.59 90.877 129.296 91.1489C128.907 91.2842 128.519 91.4196 128.13 91.555Z" fill="#6D5322" fill-opacity="0.92"/>
<path fill-rule="evenodd" clip-rule="evenodd" d="M175.43 126.077C175.319 125.243 175.116 124.994 175.929 124.802C178.912 124.097 175.525 126.023 175.43 126.077Z" fill="#6C521E"/>
<path fill-rule="evenodd" clip-rule="evenodd" d="M24.5978 87.5574C25.0622 87.5769 25.5267 87.5964 25.9913 87.6159L26.2687 88.0384C26.1571 88.1609 26.1481 88.1417 25.149 88.7097C24.6603 87.6687 24.6704 87.6753 24.5978 87.5574Z" fill="#1E2770" fill-opacity="0.18"/>
<path fill-rule="evenodd" clip-rule="evenodd" d="M117.708 45.722C117.978 46.0973 118.249 46.4727 118.519 46.848C118.102 46.9335 117.685 47.019 117.268 47.1045C117.122 46.8714 117.408 46.863 117.273 46.6464C117.252 46.6132 117.273 46.6464 116.885 46.3481C117.428 46.1803 117.398 46.1804 117.708 45.7217V45.722Z" fill="#8C7E40" fill-opacity="0.24"/>
<path fill-rule="evenodd" clip-rule="evenodd" d="M16.6663 118.911C15.4411 117.817 16.5815 117.836 16.6669 117.842C17.4756 117.89 17.1788 118.295 16.6663 118.911Z" fill="#1C1709"/>
<path fill-rule="evenodd" clip-rule="evenodd" d="M115.397 54.1049C115.642 54.5218 116.06 54.4373 115.865 56.4727C115.374 55.3398 115.445 55.3662 115.397 54.1049Z" fill="#652A3E" fill-opacity="0.87"/>
<path fill-rule="evenodd" clip-rule="evenodd" d="M70.1874 127.121C70.1095 127.089 68.569 126.476 69.6833 126.202C70.5464 125.989 70.7763 126.458 70.1874 127.121Z" fill="#4B2E12"/>
<path fill-rule="evenodd" clip-rule="evenodd" d="M68.3593 125.394C67.2916 124.369 68.2723 124.373 68.3536 124.376C69.163 124.412 68.9649 124.863 68.3593 125.394Z" fill="#161207"/>
<path fill-rule="evenodd" clip-rule="evenodd" d="M100.948 48.143C99.7806 46.6743 101.306 47.2216 101.362 47.2744C101.761 47.6506 101.412 47.6516 100.948 48.143Z" fill="#181307"/>
<path fill-rule="evenodd" clip-rule="evenodd" d="M17.594 116.517C15.8854 116.208 17.0459 115.601 17.128 115.587C17.799 115.468 17.572 115.827 17.594 116.517Z" fill="#2B1B0B"/>
<path fill-rule="evenodd" clip-rule="evenodd" d="M50.7625 32.6999C51.0165 32.8881 51.2706 33.0763 51.5246 33.2644C51.1976 33.3787 51.5115 33.6577 51.1738 33.7757C51.0888 33.8055 51.1019 33.7377 50.1797 33.2494C50.374 33.0663 50.5683 32.883 50.7625 32.6999Z" fill="#CF6090"/>
<path fill-rule="evenodd" clip-rule="evenodd" d="M74.4059 133.441C75.3423 133.371 75.2925 133.4 76.2809 133.455C75.3205 133.619 75.3424 133.615 74.4059 133.441Z" fill="#7C737B" fill-opacity="0.85"/>
<path fill-rule="evenodd" clip-rule="evenodd" d="M111.569 112.248C111.496 113.054 111.475 113.005 111.19 113.715L111.243 113.256C111.352 112.92 111.46 112.584 111.569 112.248Z" fill="#543C16" fill-opacity="0.79"/>
<path fill-rule="evenodd" clip-rule="evenodd" d="M47.4644 8.93755L47.8193 9.38368C47.8774 9.68259 47.9357 9.98161 47.9938 10.2805C47.8173 9.83283 47.6408 9.38513 47.4643 8.93744L47.4644 8.93755Z" fill="#4F3917" fill-opacity="0.71"/>
<path fill-rule="evenodd" clip-rule="evenodd" d="M134.503 89.9838C135.177 89.7571 135.134 89.7404 135.846 89.8121L134.503 89.9838Z" fill="#7E6720" fill-opacity="0.8"/>
<path fill-rule="evenodd" clip-rule="evenodd" d="M108.91 123.972L108.721 125.306C108.655 124.623 108.666 124.668 108.91 123.972Z" fill="#80681E" fill-opacity="0.79"/>
<path fill-rule="evenodd" clip-rule="evenodd" d="M112.585 111.857C112.575 112.323 112.565 112.79 112.555 113.256C112.408 112.546 112.412 112.562 112.585 111.857Z" fill="#998834" fill-opacity="0.35"/>
<path fill-rule="evenodd" clip-rule="evenodd" d="M54.385 59.7517L55.7796 59.8273C55.0654 59.9359 55.0999 59.9362 54.385 59.7517Z" fill="#8E70AB"/>
<path d="M49.6403 10.6061C50.6241 10.2578 50.8246 10.6767 51.0996 11.477L63.3567 11.5664L64.0234 12.5173C65.0072 13.5436 65.3382 13.6236 65.0072 12.7527C64.8207 11.3216 65.7951 11.171 66.4432 12.4656C67.1052 12.8892 67.4502 12.8751 67.4735 12.4232C67.8092 11.2887 69.3478 11.4299 70.187 11.9572C70.462 11.6559 71.0122 11.3734 71.3246 11.4958C71.7721 11.67 72.0938 12.2726 72.0845 12.8233C72.0379 15.4454 70.0284 16.8765 67.8465 16.514L61.641 13.5342C59.8227 13.2705 57.762 14.8287 55.6873 14.1085C54.9553 13.8543 54.0089 14.4756 53.7431 14.8993C52.7361 16.5187 53.9809 19.3902 52.0274 20.4023C51.9995 20.8872 51.8409 21.019 51.5565 20.8072C49.4492 20.8637 47.6309 19.6256 46.3954 18.0251L45.6681 17.0836C45.3464 16.6646 45.4723 15.9632 46.1203 15.8267C46.8616 15.6713 47.7055 16.0526 48.3116 15.5819C48.3769 15.2524 47.9666 14.8146 47.0947 14.2685C46.0084 13.2705 45.6121 12.329 45.9152 11.4393L47.8034 11.9336L48.0552 11.6088C47.1554 10.3896 47.0668 9.5281 47.7894 9.01969L49.631 10.6155L49.6403 10.6061Z" fill="#EDD659"/>
<path d="M45.9199 11.4295C46.456 13.8397 48.3116 15.0307 50.9831 16.0663C49.9201 16.8336 49.0109 15.878 48.3163 15.5767C46.8337 14.9318 45.7613 13.3689 45.1319 11.7166C45.048 11.4718 45.5702 11.34 45.9199 11.4342V11.4295Z" fill="#301509"/>
<path d="M65.012 12.7524C66.3127 15.2191 67.7254 14.6589 70.2384 14.3718C69.4178 15.6475 67.6182 15.4451 66.1915 14.866C65.3523 14.5271 64.3453 13.628 64.0236 12.517C64.3639 12.517 64.6949 12.6159 65.0073 12.7524H65.012Z" fill="#3F2411"/>
<path d="M52.7362 13.7554C51.6265 14.7675 50.2418 14.4521 49.6264 13.473C50.6615 13.2564 51.4773 13.0022 52.7362 13.7554Z" fill="#735724"/>
<path d="M51.9576 18.2836C51.4074 19.0886 50.046 19.4887 48.8945 18.4672C49.8222 17.8364 50.5775 17.8176 51.9576 18.2836Z" fill="#5F431C"/>
<path d="M69.2967 9.03828C63.6834 9.33485 57.5991 9.3019 51.8226 9.08535C51.72 9.08535 51.6221 8.87352 51.5242 8.6099C51.8645 5.85603 53.1373 2.40075 56.0093 0.899067C59.091 -0.715595 63.6228 -0.0706715 66.2476 2.15596C68.355 3.9448 68.975 6.70808 69.2967 9.03828Z" fill="#4E6FAA"/>
<path d="M51.0344 9.13249C57.1746 9.03834 63.2868 9.16544 69.3618 9.51379C70.4061 9.77741 70.3642 11.0296 70.1916 11.9523C69.5016 12.7007 68.4013 12.6584 67.4782 12.4183C67.4875 13.2845 67.0073 12.9738 66.4478 12.4607C65.9583 12.4795 65.4455 12.5077 65.0119 12.7478C64.7601 13.1856 64.4291 13.1056 64.0281 12.5124L51.0624 12.3759C50.0786 12.3665 50.0507 10.959 49.6404 10.6059C49.5984 10.1163 49.715 9.61735 50.1113 9.33491C50.3444 9.17015 50.722 9.11366 51.0344 9.13249Z" fill="#4E6FAA"/>
<path d="M69.2966 9.03796L69.3619 9.51342L51.5567 9.55578C51.2257 9.55578 51.0065 9.35336 51.0345 9.13211L51.5241 8.61429L60.5689 8.87791L69.2966 9.04267V9.03796Z" fill="#2D1E2C"/>
<path d="M67.4783 12.4181C67.4783 12.7335 67.8372 13.176 68.1543 13.1431C68.4154 13.1148 69.1147 12.6299 69.4457 13.3784C68.3081 14.4094 66.9048 13.5714 66.4525 12.4605L67.4829 12.4181H67.4783Z" fill="#40291C"/>
<path d="M67.851 16.5137L67.809 17.5352C67.3195 17.5964 67.1843 17.9307 67.4081 18.5332C66.7181 20.9199 65.6724 23.5633 64.0686 25.5169C64.022 25.9689 60.6762 28.6144 60.0862 28.6144C59.4962 28.6144 59.4962 28.7619 58.9461 28.3765L57.6826 31.7188C58.5824 32.9522 56.531 33.6819 55.468 33.8231C51.4631 34.3456 46.2507 28.1318 51.1461 25.5991C50.7544 25.3685 50.8896 25.2084 51.561 25.119C50.4374 24.1539 51.1787 23.3348 52.4189 24.1539L52.8152 24.1822C51.934 22.897 51.6729 21.6354 52.0319 20.3974C51.7848 20.0867 51.7988 19.7713 51.8407 19.4088C51.9153 18.7451 52.4282 15.6617 52.596 15.2098C53.4166 12.9972 54.9645 13.0914 56.9972 13.3691C60.396 12.4182 63.226 12.9455 65.4919 14.9461C66.8952 15.3086 67.6785 15.8311 67.8463 16.5137H67.851Z" fill="#FEE8E8"/>
<path d="M67.8093 17.5356C68.0657 17.5732 68.3501 17.964 68.2289 18.1758C68.0797 18.4488 67.6088 18.5053 67.4083 18.5336C67.1519 17.9687 66.0236 18.0346 65.5294 17.8557C65.3523 16.7353 67.2638 16.8671 67.8093 17.5356Z" fill="#5A3F3E"/>
<path d="M61.8367 22.7795C62.5267 22.6571 62.9836 22.8925 63.5851 23.2503L63.7622 18.0203H64.4383L64.5362 22.7089C64.5548 23.4857 63.8182 23.6928 63.4032 23.7069C62.8018 23.7305 62.2237 23.8764 61.832 22.7795H61.8367Z" fill="#634746"/>
<path d="M52.4189 24.149C51.8315 23.0851 51.3233 22.0166 51.561 20.7973C51.5983 20.6184 51.8827 20.4725 52.0319 20.3925C52.1718 23.5041 54.1066 25.9096 56.8854 28.1551C54.6148 27.9291 53.3467 25.8437 52.4142 24.149H52.4189Z" fill="#4C2E30"/>
<path d="M60.7507 24.9071C60.429 26.5029 58.0559 24.4552 57.6456 23.3489C57.4032 22.6993 57.6456 22.0402 58.5081 21.7766C58.3403 23.2924 58.7226 24.361 60.746 24.9024L60.7507 24.9071Z" fill="#654B4B"/>
<path d="M57.6827 31.714C57.6454 30.3959 58.1116 29.1908 58.9462 28.3717C58.8436 29.445 58.7597 31.2904 57.6827 31.714Z" fill="#582F36"/>
<path d="M62.9788 16.3537C61.5522 16.5608 60.6943 16.2313 59.3889 16.5561C60.0696 15.3886 61.8832 15.0826 62.9788 16.3537Z" fill="#503332"/>
<path d="M54.0555 16.3725C54.4052 16.0383 55.0252 15.6099 54.8248 14.6684C55.5661 15.0262 55.2164 15.6193 55.2817 15.9064C55.4495 16.6267 54.4285 17.0268 54.0555 16.3725Z" fill="#3F2727"/>
<path d="M66.4383 19.4938C66.7241 19.4938 66.9558 19.2598 66.9558 18.9712C66.9558 18.6826 66.7241 18.4487 66.4383 18.4487C66.1525 18.4487 65.9208 18.6826 65.9208 18.9712C65.9208 19.2598 66.1525 19.4938 66.4383 19.4938Z" fill="#654847"/>
<path d="M61.3753 18.0861C61.6277 18.0861 61.8322 17.8796 61.8322 17.6248C61.8322 17.37 61.6277 17.1635 61.3753 17.1635C61.123 17.1635 60.9184 17.37 60.9184 17.6248C60.9184 17.8796 61.123 18.0861 61.3753 18.0861Z" fill="#6F5655"/>
<path fill-rule="evenodd" clip-rule="evenodd" d="M46.4165 17.6639C49.2193 18.5959 48.6643 19.9397 51.6293 20.2165C51.6309 20.5083 51.6382 21.7896 52.6322 23.7233C52.0444 24.1638 52.0414 24.1286 51.719 24.7875C51.6004 24.6909 51.8617 24.1796 50.6652 24.3275C50.2602 24.3776 49.7462 24.5867 49.6692 24.618C42.1757 27.6674 51.3487 25.1849 51.4927 25.1374C51.4452 25.2201 50.494 27.0933 50.3235 27.5905C50.0593 28.361 52.2716 31.5655 52.9738 31.7804C56.0271 32.7145 57.2887 31.5378 57.5585 31.2862C58.9937 31.1067 58.6527 30.6405 59.2228 29.0084C59.4578 28.3354 59.1923 28.3789 59.0063 27.879C59.2992 27.8616 59.5921 27.8441 59.885 27.8267C59.9003 27.9251 61.426 33.4817 60.9455 28.4765C60.8926 27.9254 60.4537 27.6976 60.4528 27.696C62.6665 26.9283 62.3889 26.5024 64.3924 25.2559C66.0044 28.0479 65.6034 28.2253 64.5966 31.2595C63.0477 32.4703 63.3274 32.7388 61.7204 33.9012C59.8591 35.2475 58.9452 35.8832 58.359 33.6432C58.1305 32.7699 57.1558 32.8256 57.3253 34.0625C57.5224 35.5002 56.4268 34.9485 54.3882 34.5376C51.9201 34.04 52.1222 30.6027 50.7627 32.7003C50.5684 32.8834 50.3742 33.0666 50.1799 33.2497C45.7372 30.57 44.5347 29.0459 40.8677 22.4267C41.8953 19.4858 42.5657 18.0601 46.4167 17.6641L46.4165 17.6639Z" fill="#FE76B1"/>
</svg>
