<svg width="66" height="66" viewBox="0 0 66 66" fill="none" xmlns="http://www.w3.org/2000/svg">
<rect x="1.02762" y="1.02762" width="63.9447" height="63.9447" rx="31.5505" fill="#55A7E0"/>
<rect x="1.02762" y="1.02762" width="63.9447" height="63.9447" rx="31.5505" stroke="white" stroke-width="2"/>
<path fill-rule="evenodd" clip-rule="evenodd" d="M42.6006 32.5837C44.1885 33.0365 46.8961 34.0471 49.5098 33.9246C52.1235 33.8021 52.7 32.5316 54.7171 32.4813C56.7343 32.431 57.6376 34.0344 57.5464 33.9787C54.142 31.9054 52.9661 34.4461 49.9832 34.6643C48.3894 34.7809 45.2433 34.1584 44.654 34.2765C44.0647 34.3947 44.0498 34.4281 43.8506 34.5044C43.943 34.6533 44.2116 35.1165 44.7502 36.256C45.4414 37.7179 45.3171 38.4192 45.3471 40.4774C45.3771 42.5356 46.0975 43.5295 46.3376 43.8608C46.5778 44.1921 47.2003 44.6144 47.4499 45.0815C47.6995 45.5486 47.6966 46.1167 48.0694 47.6635C48.4422 49.2103 49.3404 50.4335 49.3735 50.4563C49.4068 50.4791 49.4881 50.5244 49.6713 50.8364C49.8546 51.1483 49.9486 51.4477 49.888 51.8576C49.8274 52.2673 49.9095 52.3421 49.8619 52.5683C49.8144 52.7942 49.7756 52.6739 49.6037 52.6812C49.4317 52.6884 49.4266 52.6057 49.3316 52.6051C49.2366 52.6045 49.2963 52.6178 49.1704 52.6831C49.0445 52.7484 48.8377 52.5641 48.7524 52.4805C48.6672 52.3968 48.6159 52.3656 48.5277 52.3974C48.4395 52.4291 48.4394 52.5386 48.2921 52.3529C48.1448 52.1673 47.9975 51.9817 48.1437 51.6703C48.29 51.3589 47.9713 50.9765 47.6725 49.9899C47.3736 49.0032 46.876 48.1282 45.9956 46.6947C45.1153 45.2611 43.9331 44.0954 42.4871 42.3683C41.7614 41.5014 41.2329 40.5133 40.7701 39.605C40.9608 41.0279 41.4925 41.7618 41.6923 42.0372C41.9324 42.3684 42.555 42.7908 42.8046 43.258C43.0542 43.7251 43.0513 44.2932 43.424 45.8399C43.7968 47.3867 44.7338 48.2776 44.8071 48.4651C44.8802 48.6526 44.7265 48.7926 44.9097 49.1046C45.093 49.4165 45.3033 49.6243 45.2427 50.034C45.1822 50.4437 45.2642 50.5187 45.2167 50.7447C45.1692 50.9707 45.1304 50.8504 44.9585 50.8576C44.7865 50.8649 44.7814 50.7822 44.6864 50.7816C44.5914 50.781 44.6511 50.7943 44.5252 50.8595C44.3993 50.9248 44.1925 50.7406 44.1072 50.6569C44.022 50.5733 43.9707 50.542 43.8825 50.5738C43.7943 50.6056 43.7942 50.715 43.6468 50.5294C43.4995 50.3437 43.3521 50.158 43.4984 49.8466C43.6447 49.5352 43.707 48.9658 43.4081 47.9793C43.1093 46.9926 42.2306 46.3046 41.3501 44.8711C40.4698 43.4375 39.2877 42.2719 37.8416 40.5448C36.4808 38.9194 35.8133 36.8682 34.9733 35.7142C33.1329 35.5632 28.8956 35.1798 27.1415 34.4085C25.0276 33.479 23.9519 31.8373 23.9519 31.8373C23.9519 31.8373 23.6824 31.9742 23.2492 32.2099C22.9555 32.3697 22.8035 32.3136 22.4078 32.0257C21.0237 32.5138 19.4166 32.6832 18.5448 32.8241C17.2577 33.0321 15.5797 33.6928 15.2462 33.8952C14.9129 34.0976 14.6607 34.325 14.258 34.6399C13.8552 34.955 13.7938 34.837 13.5447 34.928C13.2955 35.019 13.3588 34.9088 13.238 34.8921C13.1174 34.8757 13.1097 34.964 12.9705 34.9548C12.8312 34.9457 12.8167 34.8731 12.8167 34.8731C12.8167 34.8731 12.7182 34.8764 12.5163 34.8349C12.3144 34.7935 12.3601 34.747 12.3601 34.747C12.3601 34.747 12.2417 34.8079 12.1913 34.7709C12.1408 34.7338 12.4798 34.3656 13.2108 33.9072C13.9418 33.4487 16.1878 32.4222 17.0762 32.0724C17.7824 31.7942 19.7142 31.2856 20.6329 30.8697C19.4315 30.2548 17.8924 29.652 17.7782 29.5657C17.6268 29.4511 17.3109 29.4057 17.1199 29.5939C16.9289 29.782 16.9584 30.0002 16.8241 30.3172C16.6899 30.6341 16.6418 30.6116 16.4629 30.8054C16.2839 30.9992 16.2871 31.3512 16.2918 31.4191C16.2966 31.487 16.277 31.7626 16.2661 31.9108C16.255 32.0591 16.2074 32.0513 16.1316 32.1035C16.0558 32.1556 16.0921 32.2967 16.0135 32.3549C15.9349 32.413 15.6857 32.3039 15.6857 32.3039C15.6857 32.3039 15.768 32.503 15.6701 32.6178C15.5722 32.7327 15.3456 32.4662 15.2423 32.3741C15.139 32.282 15.1175 32.1406 14.9797 32.0908C14.8419 32.041 14.6542 31.9096 14.588 31.6449C14.5218 31.3804 14.3627 30.9702 14.6065 30.7628C14.8505 30.5555 15.0933 29.8513 15.3359 29.3661C15.5786 28.8807 16.556 27.8919 16.8815 27.8544C17.207 27.8167 17.8591 28.2383 18.3767 28.5093C18.8944 28.7804 20.9509 29.3327 20.9509 29.3327C20.9509 29.3327 20.9631 28.433 21.0119 27.5798C21.0609 26.7267 21.5498 25.4364 22.0279 25.105C22.506 24.7737 21.8788 24.0053 21.6255 23.8578C21.3723 23.7102 20.2718 23.4003 19.3288 23.6605C18.3857 23.9207 17.6334 23.9237 17.35 23.8163C17.0668 23.709 16.7195 23.7698 16.5585 23.6289C16.3975 23.488 16.3165 23.5669 16.2846 23.3695C16.2764 23.3189 16.2734 23.2734 16.2757 23.2319C16.1791 23.2944 16.0973 23.3474 16.0045 23.381C15.7335 23.4794 15.6346 23.2009 15.8222 22.8796C16.0097 22.5584 16.3247 22.231 16.9234 22.08C17.3634 21.969 17.7248 21.983 18.1171 21.8516C18.3945 21.6503 18.6547 21.4255 18.5292 21.3669C18.2888 21.2545 17.7558 21.0784 17.3078 20.9713C16.8599 20.8641 15.7739 20.4296 15.6477 20.137C15.5213 19.8444 15.5358 19.7197 15.6137 19.5226C15.6917 19.3253 15.5523 19.2165 15.6352 18.9776C15.718 18.7389 15.8006 18.7191 16.1164 18.7645C16.4322 18.8099 18.0284 18.7817 18.346 18.6673C18.6636 18.5528 18.6975 18.2622 19.2327 17.8405C19.7678 17.419 20.6611 17.2961 20.7107 17.3777C20.7603 17.4593 20.8442 17.0312 20.8932 16.8644C20.9423 16.6975 21.04 16.1152 21.1041 16.0722C21.1683 16.0291 21.5569 16.3567 21.8811 16.7273C22.2055 17.0979 22.1754 17.7701 22.1754 17.7701C22.1754 17.7701 22.2685 17.8062 22.4146 17.7139C22.5606 17.6215 23.2189 17.5933 23.8418 17.5777C24.4648 17.5621 24.8723 17.2561 25.014 17.4539C25.1558 17.6515 24.6786 17.7935 24.4352 18.2492C24.1918 18.7049 24.3168 19.6249 24.3168 19.6249C24.3168 19.6249 24.6773 19.7934 25.9172 20.8986C27.1571 22.0036 28.4401 23.1727 29.5323 24.5301C30.6243 25.8874 30.9327 25.4181 32.1853 26.5583C33.438 27.6985 33.3357 27.4171 35.8823 28.5489C38.4289 29.6805 41.4257 31.227 42.4906 32.4548C42.5282 32.4983 42.5648 32.5412 42.6006 32.5837Z" fill="white"/>
</svg>
