<svg width="60" height="18" viewBox="0 0 60 18" fill="none" xmlns="http://www.w3.org/2000/svg">
<path d="M20.6499 18V4H24.6499V0H34.6499V8H38.6499V18H30.6499V14H28.6499V18H20.6499ZM22.6499 16H24.6499V14H22.6499V16ZM22.6499 12H24.6499V10H22.6499V12ZM22.6499 8H24.6499V6H22.6499V8ZM26.6499 12H28.6499V10H26.6499V12ZM26.6499 8H28.6499V6H26.6499V8ZM26.6499 4H28.6499V2H26.6499V4ZM30.6499 12H32.6499V10H30.6499V12ZM30.6499 8H32.6499V6H30.6499V8ZM30.6499 4H32.6499V2H30.6499V4ZM34.6499 16H36.6499V14H34.6499V16ZM34.6499 12H36.6499V10H34.6499V12Z" fill="#2E2F2C"/>
</svg>
