<svg width="64" height="17" viewBox="0 0 64 17" fill="none" xmlns="http://www.w3.org/2000/svg">
<path d="M24.6599 17V7.85L21.8599 10L20.6599 8.4L31.6599 0L35.6599 3.05V1H38.6599V5.35L42.6599 8.4L41.4599 10L38.6599 7.85V17H32.6599V11H30.6599V17H24.6599ZM26.6599 15H28.6599V9H34.6599V15H36.6599V6.325L31.6599 2.525L26.6599 6.325V15ZM29.6599 7.025H33.6599C33.6599 6.49167 33.4599 6.05417 33.0599 5.7125C32.6599 5.37083 32.1932 5.2 31.6599 5.2C31.1266 5.2 30.6599 5.37083 30.2599 5.7125C29.8599 6.05417 29.6599 6.49167 29.6599 7.025ZM28.6599 15V9H31.6599H34.6599V15V9H28.6599V15Z" fill="#2E2F2C"/>
</svg>
