<svg width="58" height="4" viewBox="0 0 58 4" fill="none" xmlns="http://www.w3.org/2000/svg">
<path d="M22.6599 4C22.1099 4 21.6391 3.80417 21.2474 3.4125C20.8557 3.02083 20.6599 2.55 20.6599 2C20.6599 1.45 20.8557 0.979167 21.2474 0.5875C21.6391 0.195833 22.1099 0 22.6599 0C23.2099 0 23.6807 0.195833 24.0724 0.5875C24.4641 0.979167 24.6599 1.45 24.6599 2C24.6599 2.55 24.4641 3.02083 24.0724 3.4125C23.6807 3.80417 23.2099 4 22.6599 4ZM28.6599 4C28.1099 4 27.6391 3.80417 27.2474 3.4125C26.8557 3.02083 26.6599 2.55 26.6599 2C26.6599 1.45 26.8557 0.979167 27.2474 0.5875C27.6391 0.195833 28.1099 0 28.6599 0C29.2099 0 29.6807 0.195833 30.0724 0.5875C30.4641 0.979167 30.6599 1.45 30.6599 2C30.6599 2.55 30.4641 3.02083 30.0724 3.4125C29.6807 3.80417 29.2099 4 28.6599 4ZM34.6599 4C34.1099 4 33.6391 3.80417 33.2474 3.4125C32.8557 3.02083 32.6599 2.55 32.6599 2C32.6599 1.45 32.8557 0.979167 33.2474 0.5875C33.6391 0.195833 34.1099 0 34.6599 0C35.2099 0 35.6807 0.195833 36.0724 0.5875C36.4641 0.979167 36.6599 1.45 36.6599 2C36.6599 2.55 36.4641 3.02083 36.0724 3.4125C35.6807 3.80417 35.2099 4 34.6599 4Z" fill="#2E2F2C"/>
</svg>
